<svg id="visual" viewBox="0 0 900 450" width="900" height="450" xmlns="http://www.w3.org/2000/svg" xmlns:xlink="http://www.w3.org/1999/xlink" version="1.1"><path d="M0 60L21.5 57C43 54 86 48 128.8 50.2C171.7 52.3 214.3 62.7 257.2 66.3C300 70 343 67 385.8 66.3C428.7 65.7 471.3 67.3 514.2 68.8C557 70.3 600 71.7 642.8 72.3C685.7 73 728.3 73 771.2 67C814 61 857 49 878.5 43L900 37L900 0L878.5 0C857 0 814 0 771.2 0C728.3 0 685.7 0 642.8 0C600 0 557 0 514.2 0C471.3 0 428.7 0 385.8 0C343 0 300 0 257.2 0C214.3 0 171.7 0 128.8 0C86 0 43 0 21.5 0L0 0Z" fill="#a1ebd9"></path><path d="M0 154L21.5 154.8C43 155.7 86 157.3 128.8 151.3C171.7 145.3 214.3 131.7 257.2 124.8C300 118 343 118 385.8 118.8C428.7 119.7 471.3 121.3 514.2 124.3C557 127.3 600 131.7 642.8 137.7C685.7 143.7 728.3 151.3 771.2 145.3C814 139.3 857 119.7 878.5 109.8L900 100L900 35L878.5 41C857 47 814 59 771.2 65C728.3 71 685.7 71 642.8 70.3C600 69.7 557 68.3 514.2 66.8C471.3 65.3 428.7 63.7 385.8 64.3C343 65 300 68 257.2 64.3C214.3 60.7 171.7 50.3 128.8 48.2C86 46 43 52 21.5 55L0 58Z" fill="#8ae6d1"></path><path d="M0 204L21.5 204.7C43 205.3 86 206.7 128.8 202.2C171.7 197.7 214.3 187.3 257.2 184.3C300 181.3 343 185.7 385.8 181.8C428.7 178 471.3 166 514.2 167.5C557 169 600 184 642.8 191.5C685.7 199 728.3 199 771.2 190.8C814 182.7 857 166.3 878.5 158.2L900 150L900 98L878.5 107.8C857 117.7 814 137.3 771.2 143.3C728.3 149.3 685.7 141.7 642.8 135.7C600 129.7 557 125.3 514.2 122.3C471.3 119.3 428.7 117.7 385.8 116.8C343 116 300 116 257.2 122.8C214.3 129.7 171.7 143.3 128.8 149.3C86 155.3 43 153.7 21.5 152.8L0 152Z" fill="#70e1c8"></path><path d="M0 366L21.5 360.7C43 355.3 86 344.7 128.8 332.7C171.7 320.7 214.3 307.3 257.2 306.7C300 306 343 318 385.8 315.7C428.7 313.3 471.3 296.7 514.2 301.2C557 305.7 600 331.3 642.8 341.2C685.7 351 728.3 345 771.2 344.2C814 343.3 857 347.7 878.5 349.8L900 352L900 148L878.5 156.2C857 164.3 814 180.7 771.2 188.8C728.3 197 685.7 197 642.8 189.5C600 182 557 167 514.2 165.5C471.3 164 428.7 176 385.8 179.8C343 183.7 300 179.3 257.2 182.3C214.3 185.3 171.7 195.7 128.8 200.2C86 204.7 43 203.3 21.5 202.7L0 202Z" fill="#5fc5ae"></path><path d="M0 451L21.5 451C43 451 86 451 128.8 451C171.7 451 214.3 451 257.2 451C300 451 343 451 385.8 451C428.7 451 471.3 451 514.2 451C557 451 600 451 642.8 451C685.7 451 728.3 451 771.2 451C814 451 857 451 878.5 451L900 451L900 350L878.5 347.8C857 345.7 814 341.3 771.2 342.2C728.3 343 685.7 349 642.8 339.2C600 329.3 557 303.7 514.2 299.2C471.3 294.7 428.7 311.3 385.8 313.7C343 316 300 304 257.2 304.7C214.3 305.3 171.7 318.7 128.8 330.7C86 342.7 43 353.3 21.5 358.7L0 364Z" fill="#4eaa95"></path></svg>